<?xml version="1.0" encoding="UTF-8" standalone="no"?>
<svg
   xmlns:dc="http://purl.org/dc/elements/1.1/"
   xmlns:cc="http://creativecommons.org/ns#"
   xmlns:rdf="http://www.w3.org/1999/02/22-rdf-syntax-ns#"
   xmlns:svg="http://www.w3.org/2000/svg"
   xmlns="http://www.w3.org/2000/svg"
   viewBox="0 0 888.54266 134.06934"
   height="134.06934"
   width="888.54266"
   xml:space="preserve"
   id="svg2"
   version="1.1"><metadata
     id="metadata8"><rdf:RDF><cc:Work
         rdf:about=""><dc:format>image/svg+xml</dc:format><dc:type
           rdf:resource="http://purl.org/dc/dcmitype/StillImage" /></cc:Work></rdf:RDF></metadata><defs
     id="defs6"><clipPath
       id="clipPath24"
       clipPathUnits="userSpaceOnUse"><path
         id="path22"
         d="M 0,100.552 H 666.407 V 0 H 0 Z" /></clipPath></defs><g
     transform="matrix(1.3333333,0,0,-1.3333333,0,134.06933)"
     id="g10"><path
       id="path12"
       style="fill:#003755;fill-opacity:1;fill-rule:nonzero;stroke:none"
       d="M 427.823,0 H 666.407 V 100.552 H 427.823 Z M 430.4,97.975 H 663.829 V 2.579 H 430.4 Z" /><path
       id="path14"
       style="fill:#003755;fill-opacity:1;fill-rule:nonzero;stroke:none"
       d="M 0,0 H 417.523 V 100.552 H 0 Z" /><path
       id="path16"
       style="fill:#ffffff;fill-opacity:1;fill-rule:nonzero;stroke:none"
       d="M 663.829,2.579 H 430.4 v 95.396 h 233.429 z" /><g
       id="g18"><g
         clip-path="url(#clipPath24)"
         id="g20"><g
           transform="translate(151.8779,43.7569)"
           id="g26"><path
             id="path28"
             style="fill:#ffffff;fill-opacity:1;fill-rule:nonzero;stroke:none"
             d="m 0,0 v 6.335 c 0,20.237 -15.916,21.03 -26.646,21.03 h -24.628 v -47.889 h 26.788 C -3.458,-20.524 0,-9.146 0,0 m -7.705,-0.288 c 0,-9.865 -5.257,-14.763 -17.14,-14.763 H -43.57 v 37.015 h 18.075 c 14.405,0 17.79,-6.986 17.79,-14.619 z" /></g><g
           transform="translate(200.8477,23.2324)"
           id="g30"><path
             id="path32"
             style="fill:#ffffff;fill-opacity:1;fill-rule:nonzero;stroke:none"
             d="m 0,0 v 18.796 c 0,3.53 0,6.048 -0.287,7.849 -0.361,1.874 -1.011,3.169 -2.523,4.322 -3.458,2.736 -12.027,2.807 -16.275,2.807 -3.168,0 -11.884,-0.36 -15.051,-3.097 -1.079,-0.935 -1.368,-2.016 -1.368,-3.312 0,-0.864 0.144,-2.016 0.216,-3.53 h 7.057 c 0.145,0.867 0.287,2.954 1.08,3.745 0.936,0.939 2.593,1.297 7.416,1.297 5.547,0 9.437,-0.216 11.019,-1.078 1.514,-0.867 1.442,-2.666 1.442,-4.034 v -3.313 h -16.277 c -4.393,0 -9.434,-0.073 -12.243,-3.889 -1.223,-1.655 -1.799,-3.744 -1.799,-6.481 0,-7.919 4.895,-10.585 17.429,-10.585 6.551,0 10.8,1.006 13.393,3.24 L -6.123,0 Z m -7.274,11.809 c 0,-2.808 -0.216,-5.328 -3.386,-6.481 -1.874,-0.719 -4.536,-0.935 -9.003,-0.935 -4.464,0 -7.129,0.433 -8.712,1.44 -1.079,0.648 -1.513,1.729 -1.513,4.033 0,2.882 0.721,4.538 2.161,5.185 1.37,0.648 3.099,0.792 8.571,0.792 h 11.882 z" /></g><g
           transform="translate(244.4868,23.2324)"
           id="g34"><path
             id="path36"
             style="fill:#ffffff;fill-opacity:1;fill-rule:nonzero;stroke:none"
             d="m 0,0 v 18.292 c 0,6.337 -0.289,7.706 -1.802,8.857 -1.44,1.081 -4.319,1.728 -8.713,1.728 -3.89,0 -7.848,-0.503 -11.594,-1.512 V 0 h -7.202 v 33.486 h 6.482 l 0.502,-2.376 c 1.442,0.794 2.522,1.368 4.035,1.802 2.376,0.718 5.402,1.078 9.434,1.078 4.608,0 8.137,-0.719 10.872,-1.944 2.665,-1.15 4.107,-3.312 4.682,-5.833 0.362,-1.73 0.505,-3.239 0.505,-7.057 L 7.201,0 Z" /></g><g
           transform="translate(297.7754,25.2486)"
           id="g38"><path
             id="path40"
             style="fill:#ffffff;fill-opacity:1;fill-rule:nonzero;stroke:none"
             d="m 0,0 c -3.311,-1.655 -8.711,-2.376 -15.772,-2.376 -4.895,0 -8.929,0.36 -12.097,1.152 -3.385,0.791 -5.041,2.375 -5.257,5.256 -0.073,1.514 0,2.882 0.216,4.684 h 6.912 c 0.218,-1.731 0.218,-2.235 0.289,-2.595 0.287,-1.582 0.145,-2.449 2.016,-3.024 1.8,-0.575 4.682,-0.793 8.355,-0.793 4.611,0 7.776,0.506 9.938,1.441 1.51,0.648 2.231,1.872 2.231,4.177 0,2.664 -0.576,3.745 -3.311,4.178 -0.867,0.142 -1.729,0.142 -2.592,0.215 -0.507,0.073 -2.089,0.073 -4.61,0.143 -1.226,0 -2.592,0.073 -4.25,0.144 -7.13,0.36 -14.762,0.648 -14.762,9.075 0,7.561 4.68,10.227 17.428,10.227 3.239,0 7.274,-0.217 9.652,-0.507 2.804,-0.36 4.893,-0.862 6.407,-1.728 1.655,-0.935 2.231,-2.447 2.231,-5.113 0,-0.718 0,-1.439 -0.142,-2.591 h -6.986 l -0.288,1.513 c -0.361,1.799 -0.503,2.159 -1.081,2.592 -1.007,0.791 -4.106,1.152 -8.425,1.152 -4.394,0 -6.84,-0.217 -8.856,-0.937 -1.874,-0.648 -2.668,-1.87 -2.668,-4.247 0,-1.658 0.579,-2.882 1.368,-3.386 1.874,-1.152 11.74,-1.008 15.124,-1.079 3.603,-0.073 5.978,-0.361 8.067,-1.081 C 2.81,15.196 4.25,12.819 4.25,7.922 4.25,3.961 2.955,1.513 0,0" /></g><g
           transform="translate(342.061,23.2324)"
           id="g42"><path
             id="path44"
             style="fill:#ffffff;fill-opacity:1;fill-rule:nonzero;stroke:none"
             d="m 0,0 -17.282,15.843 h -2.593 V 0 h -7.198 v 47.89 h 7.198 V 20.597 h 2.593 L -2.949,33.486 H 5.475 L -11.232,18.723 9.582,0 Z" /></g><g
           transform="translate(393.9868,33.6748)"
           id="g46"><path
             id="path48"
             style="fill:#ffffff;fill-opacity:1;fill-rule:nonzero;stroke:none"
             d="m 0,0 h -7.129 c -0.219,-1.01 -0.361,-3.601 -1.299,-4.536 -1.078,-1.081 -3.239,-1.587 -9.073,-1.587 -5.686,0 -8.856,0.793 -10.442,2.377 -1.223,1.226 -1.944,3.746 -1.944,7.707 V 4.823 H 0.215 c 0.072,1.658 0.144,2.089 0.144,3.386 0,5.544 -0.793,8.642 -3.168,11.018 -2.738,2.809 -7.995,4.177 -15.197,4.177 -9.217,0 -14.906,-2.089 -17.281,-6.697 -1.368,-2.666 -2.162,-6.41 -2.162,-11.09 0,-7.274 1.944,-11.881 6.193,-14.187 2.664,-1.44 7.275,-2.232 13.106,-2.305 4.896,0 8.787,0.216 13.107,1.513 4.178,1.297 5.186,3.673 5.186,5.616 0,0.506 0,2.161 -0.143,3.746 m -6.627,9.578 h -23.115 c 0.284,4.175 1.15,6.049 2.806,7.273 1.657,1.226 4.753,1.801 9.29,1.801 6.267,0 9.218,-1.369 10.298,-4.251 0.434,-1.222 0.721,-2.376 0.721,-4.823" /></g><g
           transform="translate(490.8462,36.1948)"
           id="g50"><path
             id="path52"
             style="fill:#003755;fill-opacity:1;fill-rule:nonzero;stroke:none"
             d="m 0,0 c 0,-6.842 -4.821,-7.489 -12.312,-7.489 h -19.802 v 16.42 h 20.738 C -2.518,8.931 0,6.05 0,0 m 7.707,0.504 c 0,5.906 -3.383,10.298 -11.447,11.523 v 0.143 c 6.261,1.656 9.648,4.897 9.648,10.01 0,8.427 -4.107,12.747 -15.774,12.747 h -29.956 v -47.889 h 31.183 c 10.512,0 16.346,4.753 16.346,13.466 m -9.504,22.324 c 0,-7.057 -3.96,-8.497 -12.17,-8.497 h -18.147 v 15.195 h 19.083 c 7.274,0 11.234,-0.647 11.234,-6.698" /></g><g
           transform="translate(545.0024,23.2324)"
           id="g54"><path
             id="path56"
             style="fill:#003755;fill-opacity:1;fill-rule:nonzero;stroke:none"
             d="m 0,0 v 18.796 c 0,3.53 0,6.048 -0.289,7.849 -0.359,1.874 -1.008,3.169 -2.518,4.322 -3.457,2.736 -12.027,2.807 -16.277,2.807 -3.168,0 -11.885,-0.36 -15.051,-3.097 -1.08,-0.935 -1.367,-2.016 -1.367,-3.312 0,-0.864 0.143,-2.016 0.215,-3.53 h 7.058 c 0.143,0.867 0.288,2.954 1.079,3.745 0.935,0.939 2.593,1.297 7.418,1.297 5.543,0 9.437,-0.216 11.019,-1.078 1.51,-0.867 1.438,-2.666 1.438,-4.034 v -3.313 h -16.274 c -4.392,0 -9.435,-0.073 -12.242,-3.889 -1.227,-1.655 -1.801,-3.744 -1.801,-6.481 0,-7.919 4.899,-10.585 17.428,-10.585 6.553,0 10.805,1.006 13.394,3.24 L -6.121,0 Z m -7.275,11.809 c 0,-2.808 -0.215,-5.328 -3.385,-6.481 -1.871,-0.719 -4.533,-0.935 -9.002,-0.935 -4.463,0 -7.129,0.433 -8.711,1.44 -1.08,0.648 -1.514,1.729 -1.514,4.033 0,2.882 0.721,4.538 2.16,5.185 1.37,0.648 3.096,0.792 8.571,0.792 h 11.881 z" /></g><g
           transform="translate(586.8442,23.2324)"
           id="g58"><path
             id="path60"
             style="fill:#003755;fill-opacity:1;fill-rule:nonzero;stroke:none"
             d="m 0,0 v 18.292 c 0,6.337 -0.289,7.706 -1.803,8.857 -1.441,1.081 -4.32,1.728 -8.715,1.728 -3.886,0 -7.845,-0.503 -11.593,-1.512 V 0 h -7.201 v 33.486 h 6.48 l 0.506,-2.376 c 1.441,0.794 2.519,1.368 4.033,1.802 2.375,0.718 5.398,1.078 9.434,1.078 4.607,0 8.136,-0.719 10.875,-1.944 2.662,-1.15 4.103,-3.312 4.677,-5.833 0.362,-1.73 0.508,-3.239 0.508,-7.057 V 0 Z" /></g><g
           transform="translate(633.6509,23.2324)"
           id="g62"><path
             id="path64"
             style="fill:#003755;fill-opacity:1;fill-rule:nonzero;stroke:none"
             d="m 0,0 -17.283,15.843 h -2.594 V 0 h -7.201 v 47.89 h 7.201 V 20.597 h 2.594 L -2.951,33.486 H 5.473 L -11.232,18.723 9.578,0 Z" /></g></g></g></g></svg>