<?xml version="1.0" standalone="no"?>
<!DOCTYPE svg PUBLIC "-//W3C//DTD SVG 20010904//EN"
 "http://www.w3.org/TR/2001/REC-SVG-20010904/DTD/svg10.dtd">
<svg version="1.0" xmlns="http://www.w3.org/2000/svg"
 width="474.000000pt" height="474.000000pt" viewBox="0 0 474.000000 474.000000"
 preserveAspectRatio="xMidYMid meet">

<g transform="translate(0.000000,474.000000) scale(0.100000,-0.100000)"
fill="#000000" stroke="none">
<path d="M0 3235 l0 -1505 2370 0 2370 0 0 1505 0 1505 -2370 0 -2370 0 0
-1505z m978 -340 c73 -22 135 -85 156 -156 22 -72 22 -286 0 -358 -19 -67 -81
-131 -150 -156 -40 -15 -89 -19 -271 -23 l-223 -4 0 354 c0 195 3 358 8 362 4
5 102 6 217 3 157 -4 224 -9 263 -22z m2360 -177 c1 -111 6 -198 12 -198 5 0
46 40 91 89 l82 89 64 4 c38 2 63 -1 63 -7 0 -6 -43 -53 -95 -105 -53 -52 -94
-100 -93 -106 2 -7 57 -69 123 -139 66 -70 122 -131 123 -136 2 -5 -28 -9 -66
-9 l-69 0 -107 115 c-59 63 -112 115 -117 115 -4 0 -10 -51 -11 -112 l-3 -113
-49 -3 c-27 -2 -52 1 -55 7 -4 5 -6 32 -5 58 1 26 3 184 3 351 l1 303 53 -3
52 -3 3 -197z m-1630 -40 c67 -33 73 -57 70 -287 l-3 -186 -40 -3 c-28 -3 -43
1 -51 13 -12 16 -16 16 -58 0 -35 -14 -67 -16 -143 -13 -108 5 -148 19 -178
65 -25 38 -27 139 -2 176 35 54 59 62 216 67 l146 5 -1 38 c-1 21 -7 44 -13
50 -13 13 -148 22 -187 13 -16 -4 -29 -17 -36 -37 -10 -29 -12 -30 -62 -27
-48 3 -51 5 -54 32 -6 45 5 70 38 90 73 43 276 45 358 4z m643 6 c19 -11 44
-35 56 -54 22 -31 23 -42 23 -232 l0 -199 -52 3 -53 3 -3 186 c-3 231 1 224
-137 224 -63 0 -97 -5 -109 -14 -14 -12 -16 -40 -16 -208 l0 -194 -52 3 -53 3
-3 248 -2 247 50 0 c36 0 52 -4 56 -15 5 -12 10 -12 27 -3 65 34 210 36 268 2z
m652 3 c41 -18 60 -52 55 -101 -3 -30 -5 -31 -55 -34 -50 -3 -51 -2 -58 27 -4
18 -15 33 -27 37 -33 10 -165 6 -187 -6 -37 -19 -39 -81 -3 -95 9 -3 62 -8
117 -11 192 -10 225 -32 225 -152 0 -59 -3 -67 -33 -97 -24 -24 -48 -36 -92
-45 -76 -16 -257 -9 -306 12 -41 18 -62 58 -57 109 l3 34 55 0 c53 0 55 -1 60
-30 7 -39 40 -55 118 -55 105 0 153 33 138 96 -8 29 -19 31 -158 38 -115 5
-152 17 -187 62 -37 47 -24 154 24 194 49 41 284 52 368 17z m1204 -9 c64 -32
87 -78 88 -178 l0 -75 -187 -3 -188 -2 0 -41 c0 -74 68 -109 185 -94 58 7 71
16 77 55 3 23 7 25 58 25 l55 0 3 -41 c7 -90 -76 -130 -257 -122 -116 5 -152
17 -194 68 -75 88 -53 329 35 393 71 52 237 60 325 15z"/>
<path d="M610 2560 l0 -262 148 4 c175 4 216 19 254 91 20 37 23 57 23 162 0
150 -15 193 -84 233 -42 24 -55 26 -193 30 l-148 4 0 -262z"/>
<path d="M1427 2418 c-28 -21 -33 -79 -9 -108 19 -23 27 -25 111 -25 111 0
131 14 134 91 l2 49 -110 3 c-78 2 -116 -1 -128 -10z"/>
<path d="M3956 2598 c-24 -22 -40 -80 -23 -85 4 -2 63 -3 132 -3 l125 0 0 26
c0 15 -12 38 -29 55 -27 27 -35 29 -105 29 -63 0 -79 -3 -100 -22z"/>
<path d="M1097 1293 c-4 -3 -7 -163 -7 -355 l0 -348 223 0 c237 0 279 6 327
47 47 39 63 79 64 155 1 77 -17 110 -77 143 -20 11 -37 22 -37 25 0 3 13 12
29 22 43 24 65 73 64 140 -2 97 -46 150 -142 168 -59 11 -434 14 -444 3z m450
-115 c33 -31 32 -106 -1 -145 l-24 -28 -156 -3 c-124 -3 -156 -1 -157 10 -1
11 0 177 1 186 0 1 71 2 157 2 147 0 158 -1 180 -22z m-24 -279 c48 -13 69
-46 70 -109 1 -42 -4 -55 -26 -78 l-27 -27 -167 0 -166 0 1 105 c1 58 2 108 2
113 0 11 270 8 313 -4z"/>
<path d="M3165 1287 c-3 -6 -4 -165 -3 -352 l3 -340 53 -3 52 -3 0 115 c0 114
5 130 32 102 7 -7 57 -59 111 -115 l98 -101 65 0 c37 0 64 4 62 9 -1 6 -58 66
-125 134 -68 69 -123 129 -123 134 0 4 45 53 99 107 55 55 98 102 96 105 -1 3
-30 4 -63 3 l-60 -4 -87 -89 c-48 -49 -91 -86 -96 -83 -5 3 -9 93 -9 200 l0
194 -50 0 c-31 0 -52 -5 -55 -13z"/>
<path d="M2025 1086 c-5 -3 -31 -7 -57 -11 -64 -8 -98 -41 -98 -95 l0 -40 49
0 c44 0 51 3 63 27 9 19 24 30 48 35 45 10 166 0 178 -15 16 -21 22 -75 9 -85
-7 -6 -72 -11 -146 -11 -146 -2 -175 -10 -207 -58 -13 -20 -19 -46 -19 -93 0
-78 19 -111 80 -136 56 -23 206 -23 259 -1 47 21 56 21 56 2 0 -11 12 -15 46
-15 l45 0 -3 209 c-3 233 -5 238 -77 268 -32 14 -204 28 -226 19z m199 -282
c7 -19 -2 -80 -15 -106 -18 -34 -142 -50 -207 -27 -34 11 -47 37 -43 83 3 57
17 63 162 65 81 1 98 -2 103 -15z"/>
<path d="M2675 1078 c-16 -6 -36 -15 -42 -20 -9 -7 -15 -5 -19 6 -4 12 -19 16
-55 16 l-49 0 0 -246 0 -245 53 3 52 3 3 197 2 197 28 5 c30 6 85 8 150 7 28
-1 49 -8 62 -21 19 -19 20 -33 20 -206 l0 -185 53 3 52 3 0 190 c0 214 -7 240
-75 279 -40 24 -186 33 -235 14z"/>
</g>
</svg>
